<svg width="37" height="34" viewBox="0 0 37 34" fill="none" xmlns="http://www.w3.org/2000/svg">
<rect width="37" height="34" rx="5" fill="#FFDFB5" fill-opacity="0.41"/>
<path d="M27.4867 21.4261L23.5491 19.6448C23.3809 19.5691 23.1939 19.5532 23.0164 19.5994C22.8389 19.6455 22.6804 19.7513 22.5647 19.9009L20.8209 22.1497C18.0842 20.7877 15.8818 18.4629 14.5915 15.5742L16.722 13.7335C16.8639 13.6117 16.9644 13.4444 17.0081 13.2569C17.0519 13.0694 17.0366 12.8719 16.9646 12.6945L15.277 8.53813C15.198 8.34679 15.0581 8.19057 14.8817 8.09641C14.7052 8.00224 14.5031 7.97603 14.3102 8.0223L10.6539 8.91294C10.468 8.95826 10.3021 9.06876 10.1834 9.2264C10.0646 9.38405 9.99996 9.57953 10 9.78094C10 19.2997 17.3091 27 26.3128 27C26.5037 27.0001 26.6889 26.9319 26.8384 26.8066C26.9878 26.6812 27.0925 26.5061 27.1355 26.3098L27.9792 22.4503C28.0228 22.2458 27.9974 22.0316 27.9075 21.8447C27.8176 21.6577 27.6688 21.5097 27.4867 21.4261Z" fill="#FF970B"/>
</svg>
