<svg width="23" height="13" viewBox="0 0 23 13" fill="none" xmlns="http://www.w3.org/2000/svg">
<path d="M12.7684 12.456L22.491 2.89108C22.6523 2.73398 22.7803 2.54708 22.8677 2.34115C22.955 2.13522 23 1.91434 23 1.69125C23 1.46816 22.955 1.24728 22.8677 1.04135C22.7803 0.835417 22.6523 0.648512 22.491 0.491413C22.1686 0.176666 21.7324 0 21.2778 0C20.8232 0 20.3871 0.176666 20.0646 0.491413L11.4606 8.85646L2.94258 0.491413C2.62017 0.176666 2.18403 0 1.72941 0C1.2748 0 0.838657 0.176666 0.516243 0.491413C0.353645 0.647923 0.224293 0.834565 0.135675 1.04052C0.04706 1.24648 0.000946045 1.46766 0 1.69125C0.000946045 1.91483 0.04706 2.13601 0.135675 2.34197C0.224293 2.54793 0.353645 2.73457 0.516243 2.89108L10.2388 12.456C10.4 12.6275 10.5955 12.7644 10.8132 12.858C11.0309 12.9517 11.266 13 11.5036 13C11.7413 13 11.9763 12.9517 12.194 12.858C12.4117 12.7644 12.6073 12.6275 12.7684 12.456Z" fill="#939393"/>
</svg>
