<svg width="37" height="34" viewBox="0 0 37 34" fill="none" xmlns="http://www.w3.org/2000/svg">
<rect width="37" height="34" rx="5" fill="#FFDFB5" fill-opacity="0.41"/>
<path d="M17.4115 29.4956C10.3169 19.2105 9 18.1549 9 14.375C9 9.19731 13.1973 5 18.375 5C23.5527 5 27.75 9.19731 27.75 14.375C27.75 18.1549 26.4331 19.2105 19.3385 29.4956C18.8729 30.1682 17.8771 30.1681 17.4115 29.4956ZM18.375 18.2812C20.5324 18.2812 22.2812 16.5324 22.2812 14.375C22.2812 12.2176 20.5324 10.4688 18.375 10.4688C16.2176 10.4688 14.4688 12.2176 14.4688 14.375C14.4688 16.5324 16.2176 18.2812 18.375 18.2812Z" fill="#FF970B"/>
</svg>
