<svg width="26" height="27" viewBox="0 0 26 27" fill="none" xmlns="http://www.w3.org/2000/svg">
<path d="M26 14.6327C26 21.463 20.1797 27 13 27C5.8203 27 0 21.463 0 14.6327C0 7.80236 5.8203 12.7002 13 12.7002C20.1797 12.7002 26 7.80236 26 14.6327Z" fill="url(#paint0_linear_2_368)"/>
<path d="M14 10.5797C14 11.2777 13.4951 10.8957 12.8723 10.8957C12.2495 10.8957 11.7446 11.2777 11.7446 10.5797C11.7446 9.88176 10.5579 9 11.1807 9C11.8035 9 14 9.88176 14 10.5797Z" fill="#26C064"/>
<path d="M14 6.57972C14 7.27769 13.4951 6.89567 12.8723 6.89567C12.2495 6.89567 11.7446 7.27769 11.7446 6.57972C11.7446 5.88176 10.5579 5 11.1807 5C11.8035 5 14 5.88176 14 6.57972Z" fill="#26C064"/>
<path d="M9 7.57972C9 8.27769 8.49508 7.89567 7.87227 7.89567C7.24947 7.89567 6.74463 8.27769 6.74463 7.57972C6.74463 6.88176 5.55793 6 6.18073 6C6.80354 6 9 6.88176 9 7.57972Z" fill="#C22121"/>
<path d="M18 5.57972C18 6.27769 17.4951 5.89567 16.8723 5.89567C16.2495 5.89567 15.7446 6.27769 15.7446 5.57972C15.7446 4.88176 14.5579 4 15.1807 4C15.8035 4 18 4.88176 18 5.57972Z" fill="#FFB80E"/>
<path d="M14 1.57972C14 2.27769 13.4951 1.89567 12.8723 1.89567C12.2495 1.89567 11.7446 2.27769 11.7446 1.57972C11.7446 0.881757 10.5579 0 11.1807 0C11.8035 0 14 0.881757 14 1.57972Z" fill="#FFB80E"/>
<path d="M20 9.57972C20 10.2777 19.3268 9.89567 18.4964 9.89567C17.666 9.89567 16.9928 10.2777 16.9928 9.57972C16.9928 8.88176 15.4106 8 16.241 8C17.0714 8 20 8.88176 20 9.57972Z" fill="#C22121"/>
<defs>
<linearGradient id="paint0_linear_2_368" x1="2.78571" y1="13.0741" x2="-3.54947" y2="27.2125" gradientUnits="userSpaceOnUse">
<stop stop-color="#FFB80E"/>
<stop offset="1" stop-color="#E32929"/>
</linearGradient>
</defs>
</svg>
