<svg width="37" height="34" viewBox="0 0 37 34" fill="none" xmlns="http://www.w3.org/2000/svg">
<rect width="37" height="34" rx="5" fill="#FFDFB5" fill-opacity="0.41"/>
<path d="M27.64 14.6229C27.7848 14.5099 28 14.6156 28 14.7943V22.25C28 23.2161 27.2021 24 26.2188 24H10.7812C9.79785 24 9 23.2161 9 22.25V14.7979C9 14.6156 9.21152 14.5135 9.35996 14.6266C10.1912 15.2609 11.2934 16.0667 15.0785 18.7682C15.8615 19.3297 17.1826 20.5109 18.5 20.5036C19.8248 20.5146 21.1719 19.3078 21.9252 18.7682C25.7104 16.0667 26.8088 15.2573 27.64 14.6229ZM18.5 19.3333C19.3609 19.3479 20.6004 18.2688 21.2238 17.824C26.1482 14.313 26.523 14.0068 27.6586 13.1318C27.8738 12.9677 28 12.7125 28 12.4427V11.75C28 10.7839 27.2021 10 26.2188 10H10.7812C9.79785 10 9 10.7839 9 11.75V12.4427C9 12.7125 9.12617 12.9641 9.34141 13.1318C10.477 14.0031 10.8518 14.313 15.7762 17.824C16.3996 18.2688 17.6391 19.3479 18.5 19.3333Z" fill="#FF970B"/>
</svg>
