<svg width="58" height="50" viewBox="0 0 58 50" fill="none" xmlns="http://www.w3.org/2000/svg">
<rect x="0.5" y="0.5" width="57" height="49" rx="14.5" fill="#FDFDFD" stroke="#E8E8E8"/>
<path d="M36 20.3333C36 18.4767 35.2625 16.6963 33.9497 15.3835C32.637 14.0707 30.8565 13.3333 29 13.3333C27.1435 13.3333 25.363 14.0707 24.0503 15.3835C22.7375 16.6963 22 18.4767 22 20.3333C22 28.4999 18.5 30.8332 18.5 30.8332H39.5C39.5 30.8332 36 28.4999 36 20.3333Z" stroke="#FFB80E" stroke-width="2" stroke-linecap="round" stroke-linejoin="round"/>
<path d="M31.0183 35.5C30.8132 35.8536 30.5188 36.1471 30.1646 36.3511C29.8104 36.5551 29.4088 36.6625 29 36.6625C28.5912 36.6625 28.1896 36.5551 27.8354 36.3511C27.4812 36.1471 27.1868 35.8536 26.9817 35.5" stroke="#FFB80E" stroke-width="2" stroke-linecap="round" stroke-linejoin="round"/>
</svg>
