<svg width="33" height="33" viewBox="0 0 33 33" fill="none" xmlns="http://www.w3.org/2000/svg">
<path d="M10.456 20.5939C10.3157 20.6057 10.1759 20.6117 10.0357 20.6117C9.65207 20.6117 9.279 20.5561 8.91367 20.4715L0.460478 28.925C0.0455633 29.3393 0.0455633 30.0123 0.460478 30.4267L2.64825 32.615C3.06316 33.0293 3.73539 33.0293 4.14916 32.615L14.3088 22.4572L12.426 20.4258L10.456 20.5939Z" fill="#939393"/>
<path d="M32.7016 7.05115C32.3049 6.65463 31.6628 6.65463 31.2662 7.05115L25.7881 12.5291C25.2698 13.0469 24.4302 13.0469 23.9118 12.5291C23.3958 12.0117 23.3958 11.1727 23.9118 10.6555L29.3628 5.20566C29.7746 4.79344 29.7746 4.12519 29.3628 3.71202C28.949 3.30034 28.281 3.30034 27.8692 3.71202L22.4205 9.1613C21.9022 9.67964 21.0635 9.67964 20.5452 9.1613C20.0279 8.6441 20.0279 7.80457 20.5452 7.28778L26.0221 1.81041C26.4199 1.41328 26.4199 0.770024 26.0221 0.372359C25.6253 -0.0248357 24.9821 -0.0248357 24.5843 0.372359L18.4221 6.53497C16.9405 8.01749 16.4725 10.0985 16.9522 11.992L21.0831 16.1232C22.9765 16.6011 25.0585 16.1329 26.5384 14.6516L32.7015 8.48934C33.0994 8.09221 33.0994 7.44828 32.7016 7.05115Z" fill="#939393"/>
<path d="M2.76874 0.929348C2.55758 0.718118 2.27203 0.602295 1.9788 0.602295C1.91641 0.602295 1.85368 0.607618 1.79243 0.617859C1.43566 0.67823 1.12957 0.907248 0.972305 1.23322C-0.832756 4.96415 -0.07839 9.42849 2.85175 12.3588L8.09384 17.6002C8.61103 18.118 9.31035 18.4046 10.0356 18.4046C10.1132 18.4046 10.1909 18.4014 10.2685 18.395L13.312 18.1352L26.5836 32.4523C26.7896 32.6749 27.0782 32.8041 27.3823 32.8101C27.3886 32.8101 27.3951 32.8101 27.4017 32.8101C27.699 32.8101 27.9836 32.6927 28.1948 32.483L30.4678 30.2096C30.6778 30 30.7952 29.7156 30.7952 29.4193C30.7952 29.1229 30.6778 28.8383 30.4686 28.6288L2.76874 0.929348Z" fill="#939393"/>
</svg>
