<svg width="113" height="113" viewBox="0 0 113 113" fill="none" xmlns="http://www.w3.org/2000/svg">
<g filter="url(#filter0_d_2_303)">
<circle cx="56.5" cy="49.5" r="31.5" fill="white"/>
</g>
<path d="M65.3326 48.3333H52.6774L58.1797 42.8545C58.4936 42.5409 58.67 42.1156 58.67 41.6721C58.67 41.2286 58.4936 40.8033 58.1797 40.4897C57.8657 40.1762 57.4399 40 56.9958 40C56.5518 40 56.126 40.1762 55.812 40.4897L47.4752 48.8162C47.3234 48.9746 47.2044 49.1614 47.1251 49.3658C46.9583 49.7712 46.9583 50.226 47.1251 50.6314C47.2044 50.8358 47.3234 51.0226 47.4752 51.1809L55.812 59.5074C55.967 59.6635 56.1514 59.7874 56.3546 59.8719C56.5578 59.9565 56.7757 60 56.9958 60C57.216 60 57.4339 59.9565 57.6371 59.8719C57.8403 59.7874 58.0247 59.6635 58.1797 59.5074C58.3359 59.3526 58.46 59.1684 58.5446 58.9655C58.6293 58.7626 58.6729 58.5449 58.6729 58.3251C58.6729 58.1052 58.6293 57.8875 58.5446 57.6846C58.46 57.4817 58.3359 57.2975 58.1797 57.1427L52.6774 51.6639H65.3326C65.7749 51.6639 66.199 51.4884 66.5116 51.1761C66.8243 50.8638 67 50.4402 67 49.9986C67 49.5569 66.8243 49.1333 66.5116 48.821C66.199 48.5087 65.7749 48.3333 65.3326 48.3333Z" fill="#FF970B"/>
<defs>
<filter id="filter0_d_2_303" x="0" y="0" width="113" height="113" filterUnits="userSpaceOnUse" color-interpolation-filters="sRGB">
<feFlood flood-opacity="0" result="BackgroundImageFix"/>
<feColorMatrix in="SourceAlpha" type="matrix" values="0 0 0 0 0 0 0 0 0 0 0 0 0 0 0 0 0 0 127 0" result="hardAlpha"/>
<feMorphology radius="8" operator="erode" in="SourceAlpha" result="effect1_dropShadow_2_303"/>
<feOffset dy="7"/>
<feGaussianBlur stdDeviation="16.5"/>
<feComposite in2="hardAlpha" operator="out"/>
<feColorMatrix type="matrix" values="0 0 0 0 0 0 0 0 0 0 0 0 0 0 0 0 0 0 0.17 0"/>
<feBlend mode="normal" in2="BackgroundImageFix" result="effect1_dropShadow_2_303"/>
<feBlend mode="normal" in="SourceGraphic" in2="effect1_dropShadow_2_303" result="shape"/>
</filter>
</defs>
</svg>
