<svg width="113" height="113" viewBox="0 0 113 113" fill="none" xmlns="http://www.w3.org/2000/svg">
<g filter="url(#filter0_d_2_306)">
<circle cx="56.5" cy="49.5" r="31.5" fill="white"/>
</g>
<path d="M48.6674 48.3333H61.3226L55.8203 42.8545C55.5064 42.5409 55.33 42.1156 55.33 41.6721C55.33 41.2286 55.5064 40.8033 55.8203 40.4897C56.1343 40.1762 56.5601 40 57.0042 40C57.4482 40 57.874 40.1762 58.188 40.4897L66.5248 48.8162C66.6766 48.9746 66.7956 49.1614 66.8749 49.3658C67.0417 49.7712 67.0417 50.226 66.8749 50.6314C66.7956 50.8358 66.6766 51.0226 66.5248 51.1809L58.188 59.5074C58.033 59.6635 57.8486 59.7874 57.6454 59.8719C57.4422 59.9565 57.2243 60 57.0042 60C56.784 60 56.5661 59.9565 56.3629 59.8719C56.1597 59.7874 55.9753 59.6635 55.8203 59.5074C55.6641 59.3526 55.54 59.1684 55.4554 58.9655C55.3707 58.7626 55.3271 58.5449 55.3271 58.3251C55.3271 58.1052 55.3707 57.8875 55.4554 57.6846C55.54 57.4817 55.6641 57.2975 55.8203 57.1427L61.3226 51.6639H48.6674C48.2251 51.6639 47.801 51.4884 47.4884 51.1761C47.1757 50.8638 47 50.4402 47 49.9986C47 49.5569 47.1757 49.1333 47.4884 48.821C47.801 48.5087 48.2251 48.3333 48.6674 48.3333Z" fill="#262626"/>
<defs>
<filter id="filter0_d_2_306" x="0" y="0" width="113" height="113" filterUnits="userSpaceOnUse" color-interpolation-filters="sRGB">
<feFlood flood-opacity="0" result="BackgroundImageFix"/>
<feColorMatrix in="SourceAlpha" type="matrix" values="0 0 0 0 0 0 0 0 0 0 0 0 0 0 0 0 0 0 127 0" result="hardAlpha"/>
<feMorphology radius="8" operator="erode" in="SourceAlpha" result="effect1_dropShadow_2_306"/>
<feOffset dy="7"/>
<feGaussianBlur stdDeviation="16.5"/>
<feComposite in2="hardAlpha" operator="out"/>
<feColorMatrix type="matrix" values="0 0 0 0 0 0 0 0 0 0 0 0 0 0 0 0 0 0 0.17 0"/>
<feBlend mode="normal" in2="BackgroundImageFix" result="effect1_dropShadow_2_306"/>
<feBlend mode="normal" in="SourceGraphic" in2="effect1_dropShadow_2_306" result="shape"/>
</filter>
</defs>
</svg>
