<svg width="1920" height="1172" viewBox="0 0 1920 1172" fill="none" xmlns="http://www.w3.org/2000/svg">
<g clip-path="url(#clip0_2_244)">
<rect width="1920" height="1172" fill="white"/>
<rect width="1920" height="1172" fill="url(#paint0_linear_2_244)"/>
<path d="M117.038 419.62C37.4384 398.42 -73.4616 594.453 -118.962 695.12C-287.295 559.953 -631.862 261.12 -663.462 147.12C-702.962 4.61969 30.5384 -208.38 117.038 -234.88C186.238 -256.08 453.538 -164.047 578.538 -115.38C567.538 -73.3803 535.538 10.0197 495.538 7.61971C445.538 4.61971 456.038 177.12 396.038 266.62C336.038 356.12 216.538 446.12 117.038 419.62Z" stroke="#FF970B" stroke-opacity="0.19" stroke-width="8"/>
<path d="M160.038 502.62C80.4384 481.42 -30.4616 677.453 -75.9616 778.12C-244.295 642.953 -588.862 344.12 -620.462 230.12C-659.962 87.6197 73.5384 -125.38 160.038 -151.88C229.238 -173.08 496.538 -81.047 621.538 -32.3803C610.538 9.61971 578.538 93.0197 538.538 90.6197C488.538 87.6197 499.038 260.12 439.038 349.62C379.038 439.12 259.538 529.12 160.038 502.62Z" stroke="#FF970B" stroke-opacity="0.19" stroke-width="8"/>
<path d="M1926.04 1047.62C1846.44 1026.42 1735.54 1222.45 1690.04 1323.12C1521.71 1187.95 1177.14 889.12 1145.54 775.12C1106.04 632.62 1839.54 419.62 1926.04 393.12C1995.24 371.92 2262.54 463.953 2387.54 512.62C2376.54 554.62 2344.54 638.02 2304.54 635.62C2254.54 632.62 2265.04 805.12 2205.04 894.62C2145.04 984.12 2025.54 1074.12 1926.04 1047.62Z" stroke="#FF970B" stroke-opacity="0.13" stroke-width="8"/>
<path d="M1969.04 1130.62C1889.44 1109.42 1778.54 1305.45 1733.04 1406.12C1564.71 1270.95 1220.14 972.12 1188.54 858.12C1149.04 715.62 1882.54 502.62 1969.04 476.12C2038.24 454.92 2305.54 546.953 2430.54 595.62C2419.54 637.62 2387.54 721.02 2347.54 718.62C2297.54 715.62 2308.04 888.12 2248.04 977.62C2188.04 1067.12 2068.54 1157.12 1969.04 1130.62Z" stroke="#FF970B" stroke-opacity="0.13" stroke-width="8"/>
</g>
<defs>
<linearGradient id="paint0_linear_2_244" x1="960" y1="0" x2="883" y2="1199" gradientUnits="userSpaceOnUse">
<stop stop-color="#000007"/>
<stop offset="1" stop-color="#03030F" stop-opacity="0.98"/>
</linearGradient>
<clipPath id="clip0_2_244">
<rect width="1920" height="1172" fill="white"/>
</clipPath>
</defs>
</svg>
