<svg width="1920" height="1029" viewBox="0 0 1920 1029" fill="none" xmlns="http://www.w3.org/2000/svg">
<g clip-path="url(#clip0_2_314)">
<rect width="1920" height="1029" fill="white"/>
<g filter="url(#filter0_f_2_314)">
<ellipse cx="1559.5" cy="376" rx="484.5" ry="485" fill="url(#paint0_linear_2_314)" fill-opacity="0.53"/>
</g>
<path d="M704.942 757.7C704.942 758.6 704.792 759.44 704.492 760.22C704.192 761 703.766 761.69 703.214 762.29C702.674 762.878 702.026 763.34 701.27 763.676C700.526 764.012 699.71 764.18 698.822 764.18C697.934 764.18 697.118 764.012 696.374 763.676C695.63 763.34 694.982 762.878 694.43 762.29C693.89 761.69 693.47 761 693.17 760.22C692.87 759.44 692.72 758.6 692.72 757.7C692.72 756.8 692.87 755.96 693.17 755.18C693.47 754.4 693.89 753.716 694.43 753.128C694.982 752.528 695.63 752.06 696.374 751.724C697.118 751.388 697.934 751.22 698.822 751.22C699.71 751.22 700.526 751.388 701.27 751.724C702.026 752.06 702.674 752.528 703.214 753.128C703.766 753.716 704.192 754.4 704.492 755.18C704.792 755.96 704.942 756.8 704.942 757.7ZM702.602 757.7C702.602 756.896 702.44 756.17 702.116 755.522C701.792 754.862 701.348 754.34 700.784 753.956C700.22 753.572 699.566 753.38 698.822 753.38C698.078 753.38 697.424 753.572 696.86 753.956C696.296 754.34 695.852 754.856 695.528 755.504C695.216 756.152 695.06 756.884 695.06 757.7C695.06 758.504 695.216 759.236 695.528 759.896C695.852 760.544 696.296 761.06 696.86 761.444C697.424 761.828 698.078 762.02 698.822 762.02C699.566 762.02 700.22 761.828 700.784 761.444C701.348 761.06 701.792 760.544 702.116 759.896C702.44 759.236 702.602 758.504 702.602 757.7ZM714.853 750.68C715.165 750.68 715.423 750.782 715.627 750.986C715.831 751.19 715.933 751.454 715.933 751.778V762.902C715.933 763.214 715.831 763.478 715.627 763.694C715.423 763.898 715.165 764 714.853 764C714.541 764 714.283 763.898 714.079 763.694C713.875 763.478 713.773 763.214 713.773 762.902V762.02L714.169 762.182C714.169 762.338 714.085 762.53 713.917 762.758C713.749 762.974 713.521 763.19 713.233 763.406C712.945 763.622 712.603 763.808 712.207 763.964C711.823 764.108 711.403 764.18 710.947 764.18C710.119 764.18 709.369 763.97 708.697 763.55C708.025 763.118 707.491 762.53 707.095 761.786C706.711 761.03 706.519 760.166 706.519 759.194C706.519 758.21 706.711 757.346 707.095 756.602C707.491 755.846 708.019 755.258 708.679 754.838C709.339 754.406 710.071 754.19 710.875 754.19C711.391 754.19 711.865 754.268 712.297 754.424C712.729 754.58 713.101 754.778 713.413 755.018C713.737 755.258 713.983 755.504 714.151 755.756C714.331 755.996 714.421 756.2 714.421 756.368L713.773 756.602V751.778C713.773 751.466 713.875 751.208 714.079 751.004C714.283 750.788 714.541 750.68 714.853 750.68ZM711.217 762.2C711.745 762.2 712.207 762.068 712.603 761.804C712.999 761.54 713.305 761.18 713.521 760.724C713.749 760.268 713.863 759.758 713.863 759.194C713.863 758.618 713.749 758.102 713.521 757.646C713.305 757.19 712.999 756.83 712.603 756.566C712.207 756.302 711.745 756.17 711.217 756.17C710.701 756.17 710.245 756.302 709.849 756.566C709.453 756.83 709.141 757.19 708.913 757.646C708.697 758.102 708.589 758.618 708.589 759.194C708.589 759.758 708.697 760.268 708.913 760.724C709.141 761.18 709.453 761.54 709.849 761.804C710.245 762.068 710.701 762.2 711.217 762.2ZM722.808 764.18C721.788 764.18 720.9 763.97 720.144 763.55C719.4 763.118 718.824 762.536 718.416 761.804C718.02 761.072 717.822 760.244 717.822 759.32C717.822 758.24 718.038 757.322 718.47 756.566C718.914 755.798 719.49 755.21 720.198 754.802C720.906 754.394 721.656 754.19 722.448 754.19C723.06 754.19 723.636 754.316 724.176 754.568C724.728 754.82 725.214 755.168 725.634 755.612C726.054 756.044 726.384 756.548 726.624 757.124C726.876 757.7 727.002 758.312 727.002 758.96C726.99 759.248 726.876 759.482 726.66 759.662C726.444 759.842 726.192 759.932 725.904 759.932H719.028L718.488 758.132H725.094L724.698 758.492V758.006C724.674 757.658 724.548 757.346 724.32 757.07C724.104 756.794 723.828 756.578 723.492 756.422C723.168 756.254 722.82 756.17 722.448 756.17C722.088 756.17 721.752 756.218 721.44 756.314C721.128 756.41 720.858 756.572 720.63 756.8C720.402 757.028 720.222 757.334 720.09 757.718C719.958 758.102 719.892 758.588 719.892 759.176C719.892 759.824 720.024 760.376 720.288 760.832C720.564 761.276 720.912 761.618 721.332 761.858C721.764 762.086 722.22 762.2 722.7 762.2C723.144 762.2 723.498 762.164 723.762 762.092C724.026 762.02 724.236 761.936 724.392 761.84C724.56 761.732 724.71 761.642 724.842 761.57C725.058 761.462 725.262 761.408 725.454 761.408C725.718 761.408 725.934 761.498 726.102 761.678C726.282 761.858 726.372 762.068 726.372 762.308C726.372 762.632 726.204 762.926 725.868 763.19C725.556 763.454 725.118 763.688 724.554 763.892C723.99 764.084 723.408 764.18 722.808 764.18ZM729.969 764C729.657 764 729.399 763.898 729.195 763.694C728.991 763.478 728.889 763.214 728.889 762.902V755.468C728.889 755.156 728.991 754.898 729.195 754.694C729.399 754.478 729.657 754.37 729.969 754.37C730.281 754.37 730.539 754.478 730.743 754.694C730.947 754.898 731.049 755.156 731.049 755.468V757.16L730.923 755.954C731.055 755.666 731.223 755.414 731.427 755.198C731.643 754.97 731.883 754.784 732.147 754.64C732.411 754.484 732.693 754.37 732.993 754.298C733.293 754.226 733.593 754.19 733.893 754.19C734.253 754.19 734.553 754.292 734.793 754.496C735.045 754.7 735.171 754.94 735.171 755.216C735.171 755.612 735.069 755.9 734.865 756.08C734.661 756.248 734.439 756.332 734.199 756.332C733.971 756.332 733.761 756.29 733.569 756.206C733.389 756.122 733.179 756.08 732.939 756.08C732.723 756.08 732.501 756.134 732.273 756.242C732.057 756.338 731.853 756.494 731.661 756.71C731.481 756.926 731.331 757.196 731.211 757.52C731.103 757.832 731.049 758.204 731.049 758.636V762.902C731.049 763.214 730.947 763.478 730.743 763.694C730.539 763.898 730.281 764 729.969 764ZM751.476 751.4C751.764 751.4 751.998 751.496 752.178 751.688C752.358 751.88 752.448 752.12 752.448 752.408V762.902C752.448 763.214 752.34 763.478 752.124 763.694C751.92 763.898 751.662 764 751.35 764C751.194 764 751.032 763.976 750.864 763.928C750.708 763.868 750.588 763.79 750.504 763.694L743.43 754.712L743.898 754.424V762.992C743.898 763.28 743.802 763.52 743.61 763.712C743.43 763.904 743.19 764 742.89 764C742.602 764 742.368 763.904 742.188 763.712C742.008 763.52 741.918 763.28 741.918 762.992V752.498C741.918 752.186 742.02 751.928 742.224 751.724C742.44 751.508 742.704 751.4 743.016 751.4C743.184 751.4 743.358 751.436 743.538 751.508C743.718 751.568 743.85 751.664 743.934 751.796L750.792 760.544L750.486 760.76V752.408C750.486 752.12 750.576 751.88 750.756 751.688C750.936 751.496 751.176 751.4 751.476 751.4ZM764.317 759.194C764.317 760.178 764.095 761.048 763.651 761.804C763.219 762.548 762.631 763.13 761.887 763.55C761.155 763.97 760.333 764.18 759.421 764.18C758.509 764.18 757.681 763.97 756.937 763.55C756.205 763.13 755.617 762.548 755.173 761.804C754.741 761.048 754.525 760.178 754.525 759.194C754.525 758.21 754.741 757.346 755.173 756.602C755.617 755.846 756.205 755.258 756.937 754.838C757.681 754.406 758.509 754.19 759.421 754.19C760.333 754.19 761.155 754.406 761.887 754.838C762.631 755.258 763.219 755.846 763.651 756.602C764.095 757.346 764.317 758.21 764.317 759.194ZM762.157 759.194C762.157 758.582 762.031 758.054 761.779 757.61C761.539 757.154 761.209 756.8 760.789 756.548C760.381 756.296 759.925 756.17 759.421 756.17C758.917 756.17 758.455 756.296 758.035 756.548C757.627 756.8 757.297 757.154 757.045 757.61C756.805 758.054 756.685 758.582 756.685 759.194C756.685 759.794 756.805 760.322 757.045 760.778C757.297 761.222 757.627 761.57 758.035 761.822C758.455 762.074 758.917 762.2 759.421 762.2C759.925 762.2 760.381 762.074 760.789 761.822C761.209 761.57 761.539 761.222 761.779 760.778C762.031 760.322 762.157 759.794 762.157 759.194ZM777.295 754.37C777.571 754.37 777.811 754.478 778.015 754.694C778.219 754.898 778.321 755.162 778.321 755.486C778.321 755.57 778.315 755.648 778.303 755.72C778.291 755.78 778.273 755.84 778.249 755.9L775.495 763.316C775.411 763.556 775.261 763.742 775.045 763.874C774.829 763.994 774.601 764.036 774.361 764C773.953 763.976 773.647 763.748 773.443 763.316L771.661 758.186L772.129 758.204L770.455 763.316C770.251 763.748 769.945 763.976 769.537 764C769.309 764.036 769.081 763.994 768.853 763.874C768.637 763.742 768.487 763.556 768.403 763.316L765.649 755.9C765.601 755.768 765.577 755.63 765.577 755.486C765.577 755.198 765.673 754.94 765.865 754.712C766.057 754.484 766.321 754.37 766.657 754.37C766.885 754.37 767.089 754.424 767.269 754.532C767.449 754.64 767.575 754.814 767.647 755.054L769.825 760.958L769.375 760.922L771.013 756.476C771.205 756.032 771.535 755.81 772.003 755.81C772.267 755.81 772.465 755.87 772.597 755.99C772.741 756.098 772.855 756.26 772.939 756.476L774.577 760.922L774.037 760.994L776.251 755.054C776.395 754.598 776.743 754.37 777.295 754.37Z" fill="white"/>
</g>
<defs>
<filter id="filter0_f_2_314" x="-34" y="-1218" width="3187" height="3188" filterUnits="userSpaceOnUse" color-interpolation-filters="sRGB">
<feFlood flood-opacity="0" result="BackgroundImageFix"/>
<feBlend mode="normal" in="SourceGraphic" in2="BackgroundImageFix" result="shape"/>
<feGaussianBlur stdDeviation="554.5" result="effect1_foregroundBlur_2_314"/>
</filter>
<linearGradient id="paint0_linear_2_314" x1="1559.5" y1="-109" x2="361.119" y2="1379.55" gradientUnits="userSpaceOnUse">
<stop stop-color="#F84343" stop-opacity="0.56"/>
<stop offset="1" stop-color="#FF970B"/>
</linearGradient>
<clipPath id="clip0_2_314">
<rect width="1920" height="1029" fill="white"/>
</clipPath>
</defs>
</svg>
